<svg width="13" height="13" viewBox="0 0 13 13" fill="none" xmlns="http://www.w3.org/2000/svg">
<path d="M1.36346 10.223H2.36346C2.63846 10.223 2.86346 9.998 2.86346 9.723V5.223C2.86346 4.948 2.63846 4.723 2.36346 4.723H1.36346V10.223ZM11.2785 6.663C11.3335 6.538 11.3635 6.403 11.3635 6.263V5.723C11.3635 5.173 10.9135 4.723 10.3635 4.723H7.61347L8.07347 2.398C8.09847 2.288 8.08347 2.168 8.03347 2.068C7.91847 1.843 7.77347 1.638 7.59347 1.458L7.36347 1.223L4.15846 4.428C3.96846 4.618 3.86346 4.873 3.86346 5.138V9.058C3.86346 9.698 4.38846 10.223 5.03346 10.223H9.08847C9.43847 10.223 9.76847 10.038 9.94847 9.738L11.2785 6.663V6.663Z" fill="#ffffff" fill-opacity="0.8" />
</svg>
