<svg width="130" height="130" viewBox="0 0 130 130" fill="none" xmlns="http://www.w3.org/2000/svg">
<path fill-rule="evenodd" clip-rule="evenodd" d="M60.2361 117.472C75.7876 117.472 89.8904 111.27 100.206 101.204C100.318 100.999 100.46 100.807 100.634 100.634C100.807 100.46 100.999 100.318 101.204 100.206C111.27 89.8904 117.472 75.7876 117.472 60.2361C117.472 28.6255 91.8468 3 60.2361 3C40.9462 3 23.885 12.5426 13.5158 27.1647L24.5075 27.9171L25.6732 27.9969L25.8811 29.1467L28.9667 46.2062L44.9322 45.657L45.9718 45.6213L46.3697 46.5824L54.5204 66.2704C54.8373 67.0358 54.4736 67.9132 53.7082 68.2301C52.9428 68.547 52.0654 68.1834 51.7485 67.4179L43.9957 48.691L27.7731 49.249L26.4764 49.2936L26.2455 48.0169L23.137 30.8303L12.9488 30.1329C12.5185 30.1035 12.143 29.8952 11.8899 29.5857C6.26041 38.4468 3 48.9607 3 60.2361C3 91.8468 28.6255 117.472 60.2361 117.472ZM60.2361 120.472C75.9705 120.472 90.2958 114.439 101.025 104.561L125.732 129.268C126.708 130.244 128.291 130.244 129.268 129.268C130.244 128.291 130.244 126.708 129.268 125.732L104.561 101.025C114.439 90.2958 120.472 75.9705 120.472 60.2361C120.472 26.9686 93.5036 0 60.2361 0C26.9686 0 0 26.9686 0 60.2361C0 93.5036 26.9686 120.472 60.2361 120.472Z" fill="white" fill-opacity="0.5"/>
</svg>
