<svg width="40" height="40" viewBox="0 0 41 41" fill="none" xmlns="http://www.w3.org/2000/svg">
<circle cx="20.9375" cy="20.1582" r="20" fill="#ffffff20" />
<path d="M28.9375 29.1582V27.1582C28.9375 26.0973 28.5161 25.0799 27.7659 24.3298C27.0158 23.5796 25.9984 23.1582 24.9375 23.1582H16.9375C15.8766 23.1582 14.8592 23.5796 14.1091 24.3298C13.3589 25.0799 12.9375 26.0973 12.9375 27.1582V29.1582" stroke="#E2E2E2" stroke-width="2" stroke-linecap="round" stroke-linejoin="round"/>
<path d="M20.9375 19.1582C23.1466 19.1582 24.9375 17.3673 24.9375 15.1582C24.9375 12.9491 23.1466 11.1582 20.9375 11.1582C18.7284 11.1582 16.9375 12.9491 16.9375 15.1582C16.9375 17.3673 18.7284 19.1582 20.9375 19.1582Z" stroke="#E2E2E2" stroke-width="2" stroke-linecap="round" stroke-linejoin="round"/>
</svg>
