<svg width="12" height="13" viewBox="0 0 12 13" fill="none" xmlns="http://www.w3.org/2000/svg">
<path d="M6 2.79807C3.5 2.79807 1.365 4.35307 0.5 6.54807C1.365 8.74307 3.5 10.2981 6 10.2981C8.5 10.2981 10.635 8.74307 11.5 6.54807C10.635 4.35307 8.5 2.79807 6 2.79807ZM6 9.04807C4.62 9.04807 3.5 7.92807 3.5 6.54807C3.5 5.16807 4.62 4.04807 6 4.04807C7.38 4.04807 8.5 5.16807 8.5 6.54807C8.5 7.92807 7.38 9.04807 6 9.04807ZM6 5.04807C5.17 5.04807 4.5 5.71807 4.5 6.54807C4.5 7.37807 5.17 8.04807 6 8.04807C6.83 8.04807 7.5 7.37807 7.5 6.54807C7.5 5.71807 6.83 5.04807 6 5.04807Z" fill="#ffffff" fill-opacity="0.8"/>
</svg>
